<svg width="156" height="65" viewBox="0 0 156 65" fill="none" xmlns="http://www.w3.org/2000/svg">
<path d="M0.666687 0.333374H22V21.6667H0.666687V0.333374Z" fill="#9DB9EC"/>
<path d="M22 21.6667H43.3333V43.0001H22V21.6667Z" fill="#9DB9EC"/>
<path d="M22 43H43.3333V64.3333H22V43Z" fill="#153676"/>
<path d="M22 0.333374H32.6667C38.5577 0.333374 43.3333 5.109 43.3333 11V21.6667H22V0.333374Z" fill="#2D79F6"/>
<path d="M67.6587 29.9787C65.232 29.9787 63.1173 29.4702 61.3147 28.4533C59.5351 27.4133 58.16 25.9573 57.1893 24.0853C56.2187 22.1902 55.7333 19.9716 55.7333 17.4293C55.7333 14.8871 56.2187 12.68 57.1893 10.808C58.16 8.91289 59.5351 7.45689 61.3147 6.44001C63.1173 5.42312 65.232 4.91467 67.6587 4.91467C70.0853 4.91467 72.1884 5.42312 73.968 6.44001C75.7707 7.45689 77.1573 8.91289 78.128 10.808C79.0987 12.68 79.584 14.8871 79.584 17.4293C79.584 19.9716 79.0987 22.1902 78.128 24.0853C77.1573 25.9573 75.7707 27.4133 73.968 28.4533C72.1884 29.4702 70.0853 29.9787 67.6587 29.9787ZM67.6587 25.784C69.6924 25.784 71.2871 25.0676 72.4427 23.6347C73.6213 22.2018 74.2107 20.1333 74.2107 17.4293C74.2107 14.7253 73.6329 12.6685 72.4773 11.2587C71.3218 9.82578 69.7156 9.10934 67.6587 9.10934C65.6018 9.10934 63.9956 9.82578 62.84 11.2587C61.7076 12.6685 61.1413 14.7253 61.1413 17.4293C61.1413 20.1333 61.7191 22.2018 62.8747 23.6347C64.0302 25.0676 65.6249 25.784 67.6587 25.784Z" fill="#101631"/>
<path d="M95.3611 12.2293C97.3949 12.2293 98.9087 12.8302 99.9025 14.032C100.896 15.2107 101.393 17.0018 101.393 19.4053V27.4133C101.393 28.176 101.15 28.7769 100.665 29.216C100.203 29.6551 99.5673 29.8747 98.7585 29.8747C97.9496 29.8747 97.314 29.6551 96.8518 29.216C96.3896 28.7769 96.1585 28.176 96.1585 27.4133V19.648C96.1585 18.4925 95.9389 17.6489 95.4998 17.1173C95.0838 16.5858 94.4251 16.32 93.5238 16.32C92.4376 16.32 91.5594 16.6667 90.8891 17.36C90.242 18.0533 89.9185 18.9778 89.9185 20.1333V27.4133C89.9185 28.176 89.6874 28.7769 89.2251 29.216C88.7629 29.6551 88.1273 29.8747 87.3185 29.8747C86.5096 29.8747 85.8625 29.6551 85.3771 29.216C84.9149 28.7769 84.6838 28.176 84.6838 27.4133V14.6907C84.6838 13.9742 84.9265 13.3965 85.4118 12.9573C85.9202 12.5182 86.5674 12.2987 87.3531 12.2987C88.0696 12.2987 88.6474 12.5182 89.0865 12.9573C89.5487 13.3733 89.7798 13.9165 89.7798 14.5867V15.072C90.3807 14.1476 91.1549 13.4427 92.1025 12.9573C93.0731 12.472 94.1594 12.2293 95.3611 12.2293Z" fill="#101631"/>
<path d="M120.346 24.6053C120.809 24.6053 121.178 24.7902 121.456 25.16C121.756 25.5298 121.906 26.0036 121.906 26.5813C121.906 26.9742 121.791 27.344 121.56 27.6907C121.329 28.0142 121.005 28.2916 120.589 28.5227C119.803 28.9387 118.89 29.2853 117.85 29.5627C116.81 29.8169 115.851 29.944 114.973 29.944C113.124 29.944 111.506 29.5858 110.12 28.8693C108.756 28.1529 107.705 27.136 106.965 25.8187C106.225 24.4782 105.856 22.9067 105.856 21.104C105.856 19.3707 106.214 17.8338 106.93 16.4933C107.647 15.1529 108.641 14.1129 109.912 13.3733C111.183 12.6107 112.627 12.2293 114.245 12.2293C115.793 12.2293 117.145 12.576 118.301 13.2693C119.48 13.9396 120.393 14.9102 121.04 16.1813C121.687 17.4293 122.01 18.8969 122.01 20.584C122.01 21.0925 121.883 21.4853 121.629 21.7627C121.398 22.0169 121.063 22.144 120.624 22.144H110.917C111.079 23.5076 111.495 24.5013 112.165 25.1253C112.835 25.7262 113.794 26.0267 115.042 26.0267C115.713 26.0267 116.313 25.9458 116.845 25.784C117.377 25.6222 117.966 25.4027 118.613 25.1253C118.937 24.9867 119.249 24.8711 119.549 24.7787C119.849 24.6631 120.115 24.6053 120.346 24.6053ZM114.384 15.8347C113.39 15.8347 112.593 16.1582 111.992 16.8053C111.391 17.4293 111.033 18.3422 110.917 19.544H117.608C117.538 18.3191 117.226 17.3947 116.672 16.7707C116.14 16.1467 115.377 15.8347 114.384 15.8347Z" fill="#101631"/>
<path d="M78.128 39.72C78.8907 39.72 79.5031 39.9742 79.9653 40.4827C80.4507 40.968 80.6933 41.6036 80.6933 42.3893V62.08C80.6933 62.8427 80.4738 63.4436 80.0347 63.8827C79.5956 64.3218 79.0178 64.5413 78.3013 64.5413C77.608 64.5413 77.0418 64.3218 76.6027 63.8827C76.1636 63.4436 75.944 62.8427 75.944 62.08V49.8427L71.0213 59.0987C70.6978 59.6996 70.3396 60.1387 69.9467 60.416C69.5769 60.6933 69.1262 60.832 68.5947 60.832C68.0862 60.832 67.6356 60.6933 67.2427 60.416C66.8498 60.1387 66.4916 59.6996 66.168 59.0987L61.2453 50.016V62.08C61.2453 62.8196 61.0258 63.4204 60.5867 63.8827C60.1476 64.3218 59.5698 64.5413 58.8533 64.5413C58.16 64.5413 57.5938 64.3218 57.1547 63.8827C56.7156 63.4436 56.496 62.8427 56.496 62.08V42.3893C56.496 41.6036 56.7271 40.968 57.1893 40.4827C57.6747 39.9742 58.2987 39.72 59.0613 39.72C60.1707 39.72 61.0142 40.3093 61.592 41.488L68.6293 54.8347L75.632 41.488C76.256 40.3093 77.088 39.72 78.128 39.72Z" fill="#101631"/>
<path d="M100.238 59.272C100.701 59.272 101.07 59.4569 101.348 59.8267C101.648 60.1964 101.798 60.6702 101.798 61.248C101.798 61.6409 101.683 62.0107 101.452 62.3573C101.221 62.6809 100.897 62.9582 100.481 63.1893C99.6952 63.6053 98.7823 63.952 97.7423 64.2293C96.7023 64.4836 95.7432 64.6107 94.865 64.6107C93.0161 64.6107 91.3983 64.2525 90.0116 63.536C88.6481 62.8196 87.5965 61.8027 86.857 60.4853C86.1174 59.1449 85.7476 57.5733 85.7476 55.7707C85.7476 54.0373 86.1059 52.5004 86.8223 51.16C87.5387 49.8196 88.5325 48.7796 89.8036 48.04C91.0747 47.2773 92.5192 46.896 94.137 46.896C95.6854 46.896 97.0374 47.2427 98.193 47.936C99.3716 48.6062 100.285 49.5769 100.932 50.848C101.579 52.096 101.902 53.5636 101.902 55.2507C101.902 55.7591 101.775 56.152 101.521 56.4293C101.29 56.6836 100.955 56.8107 100.516 56.8107H90.809C90.9707 58.1742 91.3867 59.168 92.057 59.792C92.7272 60.3929 93.6863 60.6933 94.9343 60.6933C95.6045 60.6933 96.2054 60.6124 96.737 60.4507C97.2685 60.2889 97.8578 60.0693 98.505 59.792C98.8285 59.6533 99.1405 59.5378 99.441 59.4453C99.7414 59.3298 100.007 59.272 100.238 59.272ZM94.2756 50.5013C93.2819 50.5013 92.4845 50.8249 91.8836 51.472C91.2827 52.096 90.9245 53.0089 90.809 54.2107H97.4996C97.4303 52.9858 97.1183 52.0613 96.5636 51.4373C96.0321 50.8133 95.2694 50.5013 94.2756 50.5013Z" fill="#101631"/>
<path d="M120.976 39.72C121.785 39.72 122.432 39.9396 122.917 40.3787C123.426 40.8178 123.68 41.3956 123.68 42.112V62.08C123.68 62.8196 123.437 63.4204 122.952 63.8827C122.49 64.3218 121.866 64.5413 121.08 64.5413C120.294 64.5413 119.659 64.3218 119.173 63.8827C118.711 63.4204 118.48 62.8196 118.48 62.08V61.8027C117.972 62.6809 117.244 63.3742 116.296 63.8827C115.372 64.368 114.32 64.6107 113.141 64.6107C111.685 64.6107 110.38 64.2409 109.224 63.5013C108.092 62.7387 107.202 61.6871 106.555 60.3467C105.931 58.9831 105.619 57.4231 105.619 55.6667C105.619 53.9102 105.931 52.3733 106.555 51.056C107.202 49.7156 108.092 48.6871 109.224 47.9707C110.356 47.2542 111.662 46.896 113.141 46.896C114.297 46.896 115.337 47.1387 116.261 47.624C117.209 48.1093 117.937 48.7911 118.445 49.6693V42.008C118.445 41.3147 118.676 40.76 119.139 40.344C119.601 39.928 120.213 39.72 120.976 39.72ZM114.667 60.624C115.892 60.624 116.828 60.208 117.475 59.376C118.145 58.5209 118.48 57.3076 118.48 55.736C118.48 54.1644 118.145 52.9627 117.475 52.1307C116.828 51.2987 115.892 50.8827 114.667 50.8827C113.442 50.8827 112.494 51.2987 111.824 52.1307C111.154 52.9396 110.819 54.1182 110.819 55.6667C110.819 57.2382 111.154 58.4631 111.824 59.3413C112.494 60.1964 113.442 60.624 114.667 60.624Z" fill="#101631"/>
<path d="M131.732 64.5413C130.97 64.5413 130.334 64.3333 129.826 63.9173C129.34 63.5013 129.098 62.8889 129.098 62.08V49.4267C129.098 48.6178 129.352 48.0053 129.86 47.5893C130.369 47.1733 130.993 46.9653 131.732 46.9653C132.472 46.9653 133.084 47.1733 133.57 47.5893C134.078 48.0053 134.332 48.6178 134.332 49.4267V62.08C134.332 62.8889 134.078 63.5013 133.57 63.9173C133.084 64.3333 132.472 64.5413 131.732 64.5413ZM131.732 44.192C130.808 44.192 130.08 43.9609 129.548 43.4987C129.017 43.0133 128.751 42.3662 128.751 41.5573C128.751 40.7484 129.017 40.1129 129.548 39.6507C130.08 39.1884 130.808 38.9573 131.732 38.9573C132.634 38.9573 133.35 39.2 133.882 39.6853C134.436 40.1476 134.714 40.7716 134.714 41.5573C134.714 42.3662 134.448 43.0133 133.916 43.4987C133.385 43.9609 132.657 44.192 131.732 44.192Z" fill="#101631"/>
<path d="M154.911 60.4853C155.419 61.0169 155.673 61.5947 155.673 62.2187C155.673 62.8427 155.431 63.3973 154.945 63.8827C154.483 64.3449 153.94 64.576 153.316 64.576C152.692 64.576 152.114 64.2987 151.583 63.744L147.076 58.8907L142.604 63.744C142.072 64.2987 141.495 64.576 140.871 64.576C140.223 64.576 139.657 64.3449 139.172 63.8827C138.71 63.3973 138.479 62.8311 138.479 62.184C138.479 61.5831 138.733 61.0169 139.241 60.4853L143.921 55.5973L139.553 51.056C139.045 50.5245 138.791 49.9582 138.791 49.3573C138.791 48.7102 139.022 48.1556 139.484 47.6933C139.969 47.2311 140.524 47 141.148 47C141.795 47 142.384 47.2773 142.916 47.832L147.076 52.2693L151.271 47.832C151.802 47.2773 152.391 47 153.039 47C153.663 47 154.206 47.2311 154.668 47.6933C155.153 48.1556 155.396 48.7102 155.396 49.3573C155.396 49.9582 155.142 50.5245 154.633 51.056L150.231 55.5973L154.911 60.4853Z" fill="#101631"/>
</svg>
